<?xml version="1.0" encoding="UTF-8"?>
<svg id="Layer_1" xmlns="http://www.w3.org/2000/svg" xmlns:xlink="http://www.w3.org/1999/xlink" version="1.1" viewBox="0 0 72 72">
  <!-- Generator: Adobe Illustrator 29.5.1, SVG Export Plug-In . SVG Version: 2.1.0 Build 141)  -->
  <defs>
    <style>
      .st0 {
        fill: none;
      }

      .st1 {
        fill: url(#linear-gradient3);
      }

      .st2 {
        fill: url(#linear-gradient8);
      }

      .st3 {
        fill: url(#linear-gradient4);
      }

      .st4 {
        fill: #144e75;
      }

      .st5 {
        fill: url(#linear-gradient);
      }

      .st6 {
        clip-path: url(#clippath-1);
      }

      .st7 {
        fill: #fff;
      }

      .st8 {
        fill: #365a87;
      }

      .st9 {
        fill: #e7f1fa;
      }

      .st10 {
        fill: #5478a5;
      }

      .st11 {
        fill: url(#linear-gradient1);
      }

      .st11, .st12, .st13, .st14, .st15, .st16 {
        fill-rule: evenodd;
      }

      .st12 {
        fill: url(#linear-gradient2);
      }

      .st13 {
        fill: url(#linear-gradient7);
      }

      .st14 {
        fill: url(#linear-gradient5);
      }

      .st15 {
        fill: url(#linear-gradient6);
      }

      .st16 {
        fill: url(#linear-gradient9);
      }

      .st17 {
        clip-path: url(#clippath);
      }
    </style>
    <clipPath id="clippath">
      <path class="st0" d="M35.59,1c-2.85.01-5.58.26-7.98.68-7.07,1.25-8.35,3.86-8.35,8.68v6.36h16.7v2.12H12.99c-4.85,0-9.1,2.92-10.43,8.46-1.53,6.36-1.6,10.33,0,16.97,1.19,4.94,4.02,8.46,8.87,8.46h5.74v-7.63c0-5.51,4.77-10.37,10.43-10.37h16.68c4.64,0,8.35-3.82,8.35-8.48v-15.9c0-4.53-3.82-7.92-8.35-8.68-2.87-.48-5.84-.69-8.7-.68h0Z"/>
    </clipPath>
    <linearGradient id="linear-gradient" x1="53.79" y1="38.64" x2="8.49" y2="117.11" gradientTransform="translate(0 102.48) scale(1 -1)" gradientUnits="userSpaceOnUse">
      <stop offset="0" stop-color="#ffd786"/>
      <stop offset=".14" stop-color="#f3da9e"/>
      <stop offset=".4" stop-color="#e0dfc3"/>
      <stop offset=".63" stop-color="#d3e3de"/>
      <stop offset=".84" stop-color="#cbe5ef"/>
      <stop offset="1" stop-color="#c9e6f5"/>
    </linearGradient>
    <linearGradient id="linear-gradient1" x1="47.59" y1="61.26" x2="47.59" y2="75.1" gradientTransform="translate(0 102.48) scale(1 -1)" gradientUnits="userSpaceOnUse">
      <stop offset="0" stop-color="#ffd786"/>
      <stop offset=".07" stop-color="#ecd297"/>
      <stop offset=".2" stop-color="#d1ccaf"/>
      <stop offset=".35" stop-color="#bcc7c2"/>
      <stop offset=".51" stop-color="#aec3cf"/>
      <stop offset=".7" stop-color="#a5c1d7"/>
      <stop offset="1" stop-color="#a3c1da"/>
    </linearGradient>
    <linearGradient id="linear-gradient2" x1="35.68" y1="41.91" x2="35.68" y2="68.16" gradientTransform="translate(0 102.48) scale(1 -1)" gradientUnits="userSpaceOnUse">
      <stop offset="0" stop-color="#c9e6f5"/>
      <stop offset=".55" stop-color="#7c9fc3"/>
      <stop offset="1" stop-color="#7c9fc3"/>
    </linearGradient>
    <linearGradient id="linear-gradient3" x1="47.75" y1="19.34" x2="47.75" y2="63.46" gradientTransform="translate(0 102.48) scale(1 -1)" gradientUnits="userSpaceOnUse">
      <stop offset="0" stop-color="#5478a5"/>
      <stop offset=".39" stop-color="#5478a5"/>
      <stop offset=".73" stop-color="#406491"/>
      <stop offset="1" stop-color="#365a87"/>
    </linearGradient>
    <clipPath id="clippath-1">
      <path class="st0" d="M54.72,18.85v7.41c0,5.75-4.87,10.59-10.43,10.59h-16.68c-4.57,0-8.35,3.91-8.35,8.48v15.9c0,4.53,3.93,7.19,8.35,8.48,5.29,1.55,10.35,1.84,16.68,0,4.21-1.22,8.35-3.67,8.35-8.48v-6.36h-16.68v-2.12h25.03c4.85,0,6.66-3.39,8.35-8.46,1.74-5.23,1.67-10.26,0-16.97-1.2-4.83-3.49-8.46-8.35-8.46h-6.27Z"/>
    </clipPath>
    <linearGradient id="linear-gradient4" x1="-731.91" y1="-156.32" x2="-749.8" y2="-125.33" gradientTransform="translate(202.87 768.04) rotate(90) scale(1 -1)" gradientUnits="userSpaceOnUse">
      <stop offset="0" stop-color="#ffd786"/>
      <stop offset=".14" stop-color="#f3da9e"/>
      <stop offset=".4" stop-color="#e0dfc3"/>
      <stop offset=".63" stop-color="#d3e3de"/>
      <stop offset=".84" stop-color="#cbe5ef"/>
      <stop offset="1" stop-color="#c9e6f5"/>
    </linearGradient>
    <linearGradient id="linear-gradient5" x1="55.12" y1="58.37" x2="55.12" y2="72.85" gradientTransform="translate(0 102.48) scale(1 -1)" gradientUnits="userSpaceOnUse">
      <stop offset="0" stop-color="#ffd786"/>
      <stop offset=".07" stop-color="#ecd297"/>
      <stop offset=".2" stop-color="#d1ccaf"/>
      <stop offset=".35" stop-color="#bcc7c2"/>
      <stop offset=".51" stop-color="#aec3cf"/>
      <stop offset=".7" stop-color="#a5c1d7"/>
      <stop offset="1" stop-color="#a3c1da"/>
    </linearGradient>
    <linearGradient id="linear-gradient6" x1="85.28" y1="48.47" x2="85.28" y2="68.92" gradientTransform="translate(0 102.48) scale(1 -1)" gradientUnits="userSpaceOnUse">
      <stop offset="0" stop-color="#ffd786"/>
      <stop offset=".11" stop-color="#e2cd9a"/>
      <stop offset=".26" stop-color="#c4c4b0"/>
      <stop offset=".42" stop-color="#adbcc2"/>
      <stop offset=".58" stop-color="#9cb7ce"/>
      <stop offset=".77" stop-color="#93b4d5"/>
      <stop offset="1" stop-color="#90b3d8"/>
    </linearGradient>
    <linearGradient id="linear-gradient7" x1="39.68" y1="44.07" x2="39.68" y2="66.34" gradientTransform="translate(0 102.48) scale(1 -1)" gradientUnits="userSpaceOnUse">
      <stop offset="0" stop-color="#c9e6f5"/>
      <stop offset=".55" stop-color="#7c9fc3"/>
      <stop offset="1" stop-color="#7c9fc3"/>
    </linearGradient>
    <linearGradient id="linear-gradient8" x1="47.66" y1="19.45" x2="47.66" y2="63.58" gradientTransform="translate(0 102.48) scale(1 -1)" gradientUnits="userSpaceOnUse">
      <stop offset="0" stop-color="#5478a5"/>
      <stop offset=".39" stop-color="#5478a5"/>
      <stop offset=".73" stop-color="#406491"/>
      <stop offset="1" stop-color="#365a87"/>
    </linearGradient>
    <linearGradient id="linear-gradient9" x1="36" y1="17.83" x2="36" y2="45.13" gradientTransform="translate(0 102.48) scale(1 -1)" gradientUnits="userSpaceOnUse">
      <stop offset="0" stop-color="#5478a5"/>
      <stop offset=".15" stop-color="#476793"/>
      <stop offset=".36" stop-color="#3a5780"/>
      <stop offset=".51" stop-color="#36517a"/>
      <stop offset="1" stop-color="#273e67"/>
    </linearGradient>
  </defs>
  <g class="st17">
    <g>
      <g>
        <path class="st5" d="M2.97,59.51c-1.12,0-2.03-.91-2.03-2.03V-5.8c0-1.12.91-2.03,2.03-2.03h57.78c1.12,0,2.03.91,2.03,2.03v63.28c0,1.12-.91,2.03-2.03,2.03H2.97ZM27.01,6.06c-1.83,0-3.32,1.51-3.32,3.38s1.49,3.36,3.32,3.36,3.32-1.51,3.32-3.36-1.49-3.38-3.32-3.38Z"/>
        <path class="st7" d="M60.75-7.64c1.02,0,1.84.83,1.84,1.84v63.28c0,1.02-.83,1.84-1.84,1.84H2.97c-1.02,0-1.84-.83-1.84-1.84V-5.8c0-1.02.83-1.84,1.84-1.84h57.78M27.01,12.98c1.93,0,3.5-1.59,3.5-3.54s-1.57-3.56-3.5-3.56-3.5,1.6-3.5,3.56,1.57,3.54,3.5,3.54M60.75-8.01H2.97c-1.21,0-2.21.99-2.21,2.21v63.28c0,1.21.99,2.21,2.21,2.21h57.78c1.21,0,2.21-.99,2.21-2.21V-5.8c0-1.22-1-2.21-2.21-2.21h0ZM27.01,12.61c-1.73,0-3.13-1.42-3.13-3.17s1.4-3.19,3.13-3.19,3.13,1.43,3.13,3.19-1.41,3.17-3.13,3.17h0Z"/>
      </g>
      <path class="st11" d="M45.57,32.66c-4.38-1.43-13.71-4.58-16.46-5.12s-10.48.4-15.37,1.75c-3.95,1.1-10.73,1.19-13.17,1.18v10.75h94.05c-3.15-.04-13.49-3.68-20.23-4.72-6.74-1.04-24.43-2.42-28.82-3.84Z"/>
      <polygon class="st12" points="67.41 50.05 67.41 44.72 64.03 44.72 64.03 42.06 59.95 42.06 59.95 38.88 57.58 38.88 57.58 37.24 56.44 37.24 56.44 42.62 53.88 42.62 53.88 40.01 47.43 40.01 47.43 38.77 45.41 38.77 45.41 40.83 41.81 40.83 41.81 38.01 38.92 38.01 38.92 43.37 38.11 43.37 38.11 41.2 35.21 41.2 35.21 36.27 32.31 36.27 32.31 40.27 27.61 40.27 27.61 41.8 24.26 41.8 24.26 39.65 21.85 39.65 21.85 41.03 21.24 41.03 21.24 37.7 17.27 37.7 17.27 35.44 16.58 35.44 16.58 36.62 15.67 36.62 15.67 39.24 11.35 39.24 11.35 40.47 8.99 40.47 8.99 38.01 7.88 38.01 7.88 34.32 7.08 34.32 7.08 35.65 5.93 35.65 5.93 39.65 3.95 39.65 3.95 60.57 67.41 60.57 67.41 50.05"/>
      <g>
        <path class="st1" d="M62.88,49.92s-.38-.27-.33-.81c.05-.54.38-4.05.38-4.05,0,0,.7,3.31.61,3.92s-.33.95-.33.95l.03.93h.15v.47h.77l-.04-1.49s-.38-.27-.33-.81c.05-.54.38-4.05.38-4.05,0,0,.7,3.31.61,3.92s-.33.95-.33.95l.04,1.49h2.63v.4l1.74.14.07-.24s2.84.17,3.26.24,1.38.71,1.38.71l2.04.27,2.72.3.09,5.61s1.17.54,1.45,1.15,1.69,2.7,1.69,3.11.42,1.28.42,1.28l2.02.95,2.58,16.42H8.92v-30.95l.51-.74h1.64l.09-.61h.61l.09.68h.85l.05.74h.38l.14-1.76.47-.34h2.58v-.47h1.88v.68h3.24l.51.74v.61h1.17v.68h4.36v1.49h1.78v-1.49l.38-.54v-2.03h1.5v1.01h.33v-1.62h2.53v.88h.56l.56-.81h2.25v2.36h2.34l1.13-.14v-.34h.47v-.51h.87v-4.43h-.21v-.88h-.21v-.91h2.42l1.62-1.08.4-.03v.21h.3v-.21h.38l1.59.91h1.92l.77,1.01h.96v-.54h.19v-.44h.42v.4l1.81,1.45h1.81v-.71h.54v.27h1.57v1.66h-.28v3.51h3.33v1.05h1.17v.41h.22l-.03-.93h0Z"/>
        <path class="st9" d="M53.71,45.52h.19l.02,4h-.17l-.05-4h0ZM49.47,44.86h.51l-.05,4.16h-.42l-.05-4.16h0ZM48.44,44.86h.51l-.05,4.16h-.42l-.05-4.16h0ZM47.24,44.86h.51l-.05,4.16h-.42l-.05-4.16h0ZM46.21,44.86h.51l-.05,4.16h-.42l-.05-4.16h0ZM44.87,44.86h.51l-.05,4.16h-.42l-.05-4.16ZM43.77,44.86h.51l-.05,4.16h-.42l-.05-4.16h0ZM42.78,44.86h.51l-.05,4.16h-.42l-.05-4.16h0ZM51.43,44.91h.19l.02,4h-.17l-.05-4ZM52.02,45.12h.19l.02,4h-.17l-.05-4ZM52.59,45.25h.19l.02,4h-.17l-.05-4h0ZM53.15,45.39h.19l.02,4h-.17l-.05-4h0Z"/>
      </g>
      <path class="st7" d="M35.83,1.37c2.87,0,5.7.23,8.39.68,2.19.36,4.21,1.37,5.68,2.83,1.55,1.54,2.37,3.44,2.37,5.49v15.9c0,4.48-3.58,8.12-7.98,8.12h-16.68c-2.83,0-5.52,1.15-7.6,3.23-2.03,2.04-3.2,4.78-3.2,7.51v7.26h-5.37c-2.21,0-4.08-.76-5.55-2.27-1.36-1.39-2.36-3.38-2.97-5.92-1.55-6.44-1.55-10.36,0-16.8,1.21-5.05,5.07-8.18,10.07-8.18h22.96c.2,0,.37-.17.37-.37v-2.12c0-.2-.17-.37-.37-.37h-16.33v-5.99c0-4.67,1.2-7.11,8.05-8.32,2.42-.43,5.16-.66,7.92-.67h.24M35.83,1h-.25c-2.85.01-5.58.26-7.98.68-7.07,1.25-8.35,3.86-8.35,8.68v6.36h16.7v2.12H12.99c-4.85,0-9.1,2.92-10.43,8.46-1.53,6.36-1.6,10.33,0,16.97,1.19,4.94,4.02,8.46,8.87,8.46h5.74v-7.63c0-5.51,4.77-10.37,10.43-10.37h16.68c4.64,0,8.35-3.82,8.35-8.48v-15.9c0-4.53-3.82-7.92-8.35-8.68-2.79-.46-5.67-.68-8.45-.68h0Z"/>
    </g>
  </g>
  <g class="st6">
    <g>
      <rect class="st3" x="48.01" y="11.32" width="27.08" height="32.3" rx="6.75" ry="6.75"/>
      <path class="st14" d="M53.09,35.15c-4.38-1.49-13.71-4.79-16.46-5.36-2.75-.57-10.48.41-15.37,1.84-3.95,1.15-10.73,1.24-13.17,1.24v11.25h94.05c-3.15-.04-13.49-3.85-20.23-4.94s-24.43-2.53-28.82-4.02h0Z"/>
      <polygon class="st15" points="117.01 54.01 117.01 47.08 113.63 47.08 113.63 43.61 109.55 43.61 109.55 39.48 107.18 39.48 107.18 37.35 106.04 37.35 106.04 44.35 103.48 44.35 103.48 40.95 97.03 40.95 97.03 39.35 95 39.35 95 42.02 91.42 42.02 91.42 38.35 88.52 38.35 88.52 45.33 87.71 45.33 87.71 42.5 84.81 42.5 84.81 36.09 81.91 36.09 81.91 41.29 77.21 41.29 77.21 43.28 73.85 43.28 73.85 40.48 71.45 40.48 71.45 42.28 70.84 42.28 70.84 37.95 66.87 37.95 66.87 35.02 66.18 35.02 66.18 36.55 65.27 36.55 65.27 39.95 60.95 39.95 60.95 41.55 58.59 41.55 58.59 38.35 57.48 38.35 57.48 33.55 56.68 33.55 56.68 35.29 55.53 35.29 55.53 40.48 53.55 40.48 53.55 54.01 117.01 54.01 117.01 54.01"/>
      <polygon class="st13" points="71.41 49.49 71.41 44.97 68.03 44.97 68.03 42.71 63.95 42.71 63.95 40.01 61.58 40.01 61.58 38.62 60.44 38.62 60.44 43.19 57.88 43.19 57.88 40.97 51.43 40.97 51.43 39.92 49.4 39.92 49.4 41.67 45.81 41.67 45.81 39.27 42.91 39.27 42.91 43.83 42.11 43.83 42.11 41.98 39.21 41.98 39.21 37.8 36.31 37.8 36.31 41.19 31.61 41.19 31.61 42.49 28.25 42.49 28.25 40.66 25.85 40.66 25.85 41.84 25.24 41.84 25.24 39.01 21.27 39.01 21.27 37.1 20.58 37.1 20.58 38.1 19.66 38.1 19.66 40.32 15.35 40.32 15.35 41.36 12.98 41.36 12.98 39.27 11.88 39.27 11.88 36.14 11.08 36.14 11.08 37.27 9.93 37.27 9.93 40.66 7.94 40.66 7.94 58.41 71.41 58.41 71.41 49.49"/>
      <path class="st2" d="M83.91,65.14l-2.02-.95s-.42-.88-.42-1.28-1.41-2.5-1.69-3.11-1.45-1.15-1.45-1.15l-.09-5.61-2.72-.3-2.04-.27s-.96-.64-1.38-.71c-.42-.07-3.26-.24-3.26-.24l-.07.24-1.74-.14v-.4h-2.63l-.04-1.49s.23-.34.33-.95c.09-.61-.61-3.92-.61-3.92,0,0-.33,3.51-.38,4.05-.05.54.33.81.33.81l.04,1.49h-.77v-.47h-.15l-.03-.93s.23-.34.33-.95c.09-.61-.61-3.92-.61-3.92,0,0-.33,3.51-.38,4.05-.05.54.33.81.33.81l.03.93h-.22v-.41h-1.17v-1.05h-3.33v-3.51h.28v-1.66h-1.57v-.27h-.54v.71h-1.81l-1.81-1.45v-.4h-.42v.44h-.19v.54h-.96l-.77-1.01h-1.92l-1.59-.91h-.38v.21h-.3v-.21l-.4.03-1.62,1.08h-2.42v.91h.21v.88h.21v4.43h-.87v.51h-.47v.34l-1.13.14h-2.34v-2.36h-2.25l-.56.81h-.56v-.88h-2.53v1.62h-.33v-1.01h-1.5v2.03l-.38.54v1.49h-1.78v-1.49h-4.36v-.68h-1.17v-.61l-.51-.74h-3.24v-.68h-1.88v.47h-2.58l-.47.34-.14,1.76h-.38l-.05-.74h-.85l-.09-.68h-.61l-.09.61h-1.64l-.51.74v30.95h77.66l-2.58-16.42h0ZM45.34,65.48c-1.73,0-3.13-1.42-3.13-3.17s1.4-3.19,3.13-3.19,3.13,1.43,3.13,3.19-1.41,3.17-3.13,3.17Z"/>
      <path class="st9" d="M53.62,45.41h.19l.02,4h-.17l-.05-4ZM49.38,44.75h.51l-.05,4.16h-.42l-.05-4.16h0ZM48.35,44.75h.51l-.05,4.16h-.42l-.05-4.16h0ZM47.15,44.75h.51l-.05,4.16h-.42l-.05-4.16h0ZM46.12,44.75h.51l-.05,4.16h-.42l-.05-4.16h0ZM44.78,44.75h.51l-.05,4.16h-.42l-.05-4.16ZM43.67,44.75h.51l-.05,4.16h-.42l-.05-4.16h0ZM42.69,44.75h.51l-.05,4.16h-.42l-.05-4.16h0ZM51.34,44.8h.19l.02,4h-.17l-.05-4h0ZM51.93,45h.19l.02,4h-.17l-.05-4ZM52.5,45.14h.19l.02,4h-.17l-.05-4h0ZM53.06,45.27h.19l.02,4h-.17l-.05-4h0Z"/>
      <g>
        <polygon class="st16" points="2.62 84.65 2.62 61.53 4.1 61.53 4.25 59.47 4.76 59.47 4.76 58.44 6.7 58.44 6.7 61.61 9.76 61.61 9.76 64.33 23.14 64.33 23.14 61.75 25.02 61.75 25.02 62.23 27.04 62.23 27.04 57.35 32.55 57.35 32.55 64.92 33.98 66.98 33.98 67.82 42.18 67.82 42.18 70.06 43.45 70.06 43.45 66.46 53.2 66.46 53.2 68.89 56.16 68.89 56.16 67.05 56.77 66.17 63.11 66.17 63.11 68.08 64.53 68.08 64.53 67.2 66.12 67.2 69.38 67.2 69.38 84.65 2.62 84.65"/>
        <path class="st10" d="M24.08,62.23h.41v2.46h-.41v-2.46ZM5.5,58.7h.41v3.24h-.41v-3.24ZM5.5,62.56h.41v3.24h-.41v-3.24h0ZM6.9,62.56h.41v3.24h-.41v-3.24h0ZM8.31,62.56h.41v3.24h-.41v-3.24h0ZM19.89,66.17h.41v2.46h-.41v-2.46ZM18.01,66.17h.41v2.46h-.41v-2.46ZM15.99,66.17h.41v2.46h-.41v-2.46ZM28.47,58.33h.46v2.87h-.46v-2.87ZM29.77,58.33h.46v2.87h-.46v-2.87ZM31,58.33h.46v2.87h-.46v-2.87ZM28.5,61.79h.41v2.46h-.41v-2.46ZM29.85,61.79h.41v2.46h-.41v-2.46ZM31.07,61.79h.41v2.46h-.41v-2.46ZM35.49,68.41h.41v2.46h-.41v-2.46ZM36.48,68.41h.41v2.46h-.41v-2.46ZM37.61,68.41h.41v2.46h-.41v-2.46ZM38.68,68.41h.41v2.46h-.41v-2.46ZM39.98,68.41h.41v2.46h-.41v-2.46ZM41.1,68.41h.41v2.46h-.41v-2.46ZM57.75,67.16h.41v2.46h-.41v-2.46ZM58.74,67.16h.41v2.46h-.41v-2.46ZM59.74,67.16h.41v2.46h-.41v-2.46ZM60.73,67.16h.41v2.46h-.41v-2.46ZM61.73,67.16h.41v2.46h-.41v-2.46ZM62.49,67.16h.41v2.46h-.41v-2.46ZM24.08,66.17h.41v2.46h-.41v-2.46ZM26.02,66.17h.41v2.46h-.41v-2.46Z"/>
      </g>
      <path class="st8" d="M64.24,28.21s.03.16-.08.13c-.11-.03-.44-.24-.44-.24,0,0-.24-.08-.33-.07-.04,0-.25-.03-.25-.03,0,0-.08.04-.17,0-.07.08-.14.05-.14.05,0,0-.2.04-.28.01-.06.04-.18,0-.18,0,0,0-.13.03-.17.01-.06.03-.2,0-.2,0,0,0-.25.05-.29,0-.05.01-.18,0-.18,0,0,0-.16.02-.22.02-.06,0-.16.01-.23.01-.07,0-.15,0-.19,0-.04,0-.07,0-.14.02-.07.01-.47.1-.37.04s.56-.07.36-.09c-.2.01-.32.02-.42.01s-.25-.02-.17-.04c.08-.02.46.04.31,0-.14-.03-.48-.11-.37-.11s.47.1.35.05-.31-.17-.21-.15.2.09.35.13c.15.04.35.09.26.04-.1-.04-.29-.17-.22-.15.06.01.21.16.4.15s.38-.07.48-.09c.1-.03.57-.16.8-.18l.84-.09s.06-.14.23-.16c.17-.02.28-.03.33-.07.05-.04.53-.37.8-.5.26-.13.82-.34.94-.42.06-.04.08-.05.11-.07s.04-.05.07-.13l.1-.19s.03.02,0,.07c-.03.06-.12.24-.12.24,0,0,.12-.04.28-.29.16-.25.2-.3.21-.26,0,.03-.19.32-.19.32,0,0,.42-.42.42-.33-.13.12-.2.2-.2.2,0,0,.24-.18.24-.13-.09.09-.53.36-.53.36,0,0,.42-.25.42-.19s-.38.22-.48.31c-.11.09-.36.3-.63.52-.27.22-.41.31-.66.47-.25.16-.54.38-.54.38,0,0,.02.08.09.1.06.03.32.13.4.16.08.02.11.07.09.09s-.02.08-.1.08-.15,0-.15,0h0Z"/>
      <path class="st4" d="M60.99,19.22c4.07,0,6.61,2.6,7.99,8.19,1.7,6.83,1.7,11.69,0,16.77-1.77,5.33-3.57,8.21-8,8.21h-25.03c-.2,0-.37.17-.37.37v2.12c0,.2.17.37.37.37h16.31v5.99c0,4.79-4.4,7.06-8.08,8.13-2.92.85-5.63,1.26-8.29,1.26s-5.26-.4-8.18-1.26c-3.02-.89-8.09-3.13-8.09-8.13v-15.9c0-4.4,3.66-8.12,7.98-8.12h16.68c2.76,0,5.51-1.18,7.56-3.25,2.09-2.11,3.24-4.84,3.24-7.71v-7.05h5.9M60.99,18.85h-6.27v7.41c0,5.75-4.87,10.59-10.43,10.59h-16.68c-4.57,0-8.35,3.91-8.35,8.48v15.9c0,4.53,3.93,7.19,8.35,8.48,2.75.81,5.45,1.27,8.29,1.27,2.62,0,5.36-.39,8.39-1.27,4.21-1.22,8.35-3.67,8.35-8.48v-6.36h-16.68v-2.12h25.03c4.85,0,6.66-3.39,8.35-8.46,1.74-5.23,1.67-10.26,0-16.97-1.2-4.83-3.49-8.46-8.35-8.46h0Z"/>
      <path class="st4" d="M45.34,59.19c1.72,0,3.12,1.4,3.12,3.12s-1.4,3.12-3.12,3.12-3.12-1.4-3.12-3.12,1.4-3.12,3.12-3.12M45.34,58.84c-1.91,0-3.47,1.55-3.47,3.47s1.55,3.47,3.47,3.47,3.47-1.55,3.47-3.47-1.55-3.47-3.47-3.47h0Z"/>
    </g>
  </g>
</svg>