<?xml version="1.0" encoding="UTF-8"?>
<svg id="Layer_1" xmlns="http://www.w3.org/2000/svg" xmlns:xlink="http://www.w3.org/1999/xlink" version="1.1" viewBox="0 0 606.66 255">
  <!-- Generator: Adobe Illustrator 29.5.1, SVG Export Plug-In . SVG Version: 2.1.0 Build 141)  -->
  <defs>
    <style>
      .st0 {
        fill: none;
      }

      .st1 {
        fill: url(#linear-gradient3);
      }

      .st2 {
        fill: url(#linear-gradient8);
      }

      .st3 {
        fill: url(#linear-gradient4);
      }

      .st4 {
        fill: url(#linear-gradient);
      }

      .st5 {
        clip-path: url(#clippath-1);
      }

      .st6 {
        fill: #fff;
      }

      .st7 {
        fill: #eea141;
      }

      .st8 {
        fill: #365a87;
      }

      .st9 {
        fill: #e7f1fa;
      }

      .st10 {
        fill: #5478a5;
      }

      .st11 {
        fill: url(#linear-gradient1);
      }

      .st11, .st12, .st13, .st14, .st15, .st16 {
        fill-rule: evenodd;
      }

      .st12 {
        fill: url(#linear-gradient2);
      }

      .st13 {
        fill: url(#linear-gradient7);
      }

      .st14 {
        fill: url(#linear-gradient5);
      }

      .st15 {
        fill: url(#linear-gradient6);
      }

      .st16 {
        fill: url(#linear-gradient9);
      }

      .st17 {
        fill: #123c62;
      }

      .st18 {
        clip-path: url(#clippath);
      }
    </style>
    <clipPath id="clippath">
      <path class="st0" d="M123.08,4.17c-10.03.05-19.61.9-28.04,2.39-24.84,4.39-29.34,13.57-29.34,30.51v22.37h58.69v7.46H43.67c-17.06,0-31.99,10.25-36.66,29.75-5.39,22.35-5.63,36.3,0,59.65,4.17,17.37,14.13,29.75,31.19,29.75h20.18v-26.81c0-19.37,16.76-36.46,36.66-36.46h58.62c16.32,0,29.34-13.44,29.34-29.82v-55.88c0-15.91-13.42-27.85-29.34-30.51-10.08-1.68-20.54-2.44-30.58-2.39h0Z"/>
    </clipPath>
    <linearGradient id="linear-gradient" x1="187.07" y1="99.34" x2="27.86" y2="375.12" gradientTransform="translate(0 324.33) scale(1 -1)" gradientUnits="userSpaceOnUse">
      <stop offset="0" stop-color="#ffd786"/>
      <stop offset=".14" stop-color="#f3da9e"/>
      <stop offset=".4" stop-color="#e0dfc3"/>
      <stop offset=".63" stop-color="#d3e3de"/>
      <stop offset=".84" stop-color="#cbe5ef"/>
      <stop offset="1" stop-color="#c9e6f5"/>
    </linearGradient>
    <linearGradient id="linear-gradient1" x1="165.27" y1="178.82" x2="165.27" y2="227.48" gradientTransform="translate(0 324.33) scale(1 -1)" gradientUnits="userSpaceOnUse">
      <stop offset="0" stop-color="#ffd786"/>
      <stop offset=".07" stop-color="#ecd297"/>
      <stop offset=".2" stop-color="#d1ccaf"/>
      <stop offset=".35" stop-color="#bcc7c2"/>
      <stop offset=".51" stop-color="#aec3cf"/>
      <stop offset=".7" stop-color="#a5c1d7"/>
      <stop offset="1" stop-color="#a3c1da"/>
    </linearGradient>
    <linearGradient id="linear-gradient2" x1="123.4" y1="110.82" x2="123.4" y2="203.08" gradientTransform="translate(0 324.33) scale(1 -1)" gradientUnits="userSpaceOnUse">
      <stop offset="0" stop-color="#c9e6f5"/>
      <stop offset=".55" stop-color="#7c9fc3"/>
      <stop offset="1" stop-color="#7c9fc3"/>
    </linearGradient>
    <linearGradient id="linear-gradient3" x1="165.84" y1="31.48" x2="165.84" y2="186.57" gradientTransform="translate(0 324.33) scale(1 -1)" gradientUnits="userSpaceOnUse">
      <stop offset="0" stop-color="#5478a5"/>
      <stop offset=".39" stop-color="#5478a5"/>
      <stop offset=".73" stop-color="#406491"/>
      <stop offset="1" stop-color="#365a87"/>
    </linearGradient>
    <clipPath id="clippath-1">
      <path class="st0" d="M190.32,66.9v26.06c0,20.2-17.13,37.21-36.66,37.21h-58.62c-16.06,0-29.34,13.74-29.34,29.82v55.88c0,15.91,13.83,25.26,29.34,29.82,18.58,5.46,36.39,6.45,58.62,0,14.78-4.28,29.34-12.89,29.34-29.82v-22.37h-58.62v-7.46h87.97c17.06,0,23.41-11.9,29.34-29.75,6.13-18.38,5.87-36.06,0-59.65-4.22-16.98-12.27-29.75-29.34-29.75h-22.03Z"/>
    </clipPath>
    <linearGradient id="linear-gradient4" x1="-657.29" y1="-26.68" x2="-726.58" y2="93.35" gradientTransform="translate(182.9 788.01) rotate(90) scale(1 -1)" gradientUnits="userSpaceOnUse">
      <stop offset="0" stop-color="#ffd786"/>
      <stop offset=".14" stop-color="#f3da9e"/>
      <stop offset=".4" stop-color="#e0dfc3"/>
      <stop offset=".63" stop-color="#d3e3de"/>
      <stop offset=".84" stop-color="#cbe5ef"/>
      <stop offset="1" stop-color="#c9e6f5"/>
    </linearGradient>
    <linearGradient id="linear-gradient5" x1="191.72" y1="168.65" x2="191.72" y2="219.58" gradientTransform="translate(0 324.33) scale(1 -1)" gradientUnits="userSpaceOnUse">
      <stop offset="0" stop-color="#ffd786"/>
      <stop offset=".07" stop-color="#ecd297"/>
      <stop offset=".2" stop-color="#d1ccaf"/>
      <stop offset=".35" stop-color="#bcc7c2"/>
      <stop offset=".51" stop-color="#aec3cf"/>
      <stop offset=".7" stop-color="#a5c1d7"/>
      <stop offset="1" stop-color="#a3c1da"/>
    </linearGradient>
    <linearGradient id="linear-gradient6" x1="297.74" y1="133.87" x2="297.74" y2="205.76" gradientTransform="translate(0 324.33) scale(1 -1)" gradientUnits="userSpaceOnUse">
      <stop offset="0" stop-color="#ffd786"/>
      <stop offset=".11" stop-color="#e2cd9a"/>
      <stop offset=".26" stop-color="#c4c4b0"/>
      <stop offset=".42" stop-color="#adbcc2"/>
      <stop offset=".58" stop-color="#9cb7ce"/>
      <stop offset=".77" stop-color="#93b4d5"/>
      <stop offset="1" stop-color="#90b3d8"/>
    </linearGradient>
    <linearGradient id="linear-gradient7" x1="137.46" y1="118.39" x2="137.46" y2="196.66" gradientTransform="translate(0 324.33) scale(1 -1)" gradientUnits="userSpaceOnUse">
      <stop offset="0" stop-color="#c9e6f5"/>
      <stop offset=".55" stop-color="#7c9fc3"/>
      <stop offset="1" stop-color="#7c9fc3"/>
    </linearGradient>
    <linearGradient id="linear-gradient8" x1="165.5" y1="31.87" x2="165.5" y2="186.96" gradientTransform="translate(0 324.33) scale(1 -1)" gradientUnits="userSpaceOnUse">
      <stop offset="0" stop-color="#5478a5"/>
      <stop offset=".39" stop-color="#5478a5"/>
      <stop offset=".73" stop-color="#406491"/>
      <stop offset="1" stop-color="#365a87"/>
    </linearGradient>
    <linearGradient id="linear-gradient9" x1="124.53" y1="26.17" x2="124.53" y2="122.14" gradientTransform="translate(0 324.33) scale(1 -1)" gradientUnits="userSpaceOnUse">
      <stop offset="0" stop-color="#5478a5"/>
      <stop offset=".15" stop-color="#476793"/>
      <stop offset=".36" stop-color="#3a5780"/>
      <stop offset=".51" stop-color="#36517a"/>
      <stop offset="1" stop-color="#273e67"/>
    </linearGradient>
  </defs>
  <g>
    <g class="st18">
      <g>
        <g>
          <path class="st4" d="M8.44,209.78c-3.92,0-7.12-3.19-7.12-7.12V-19.74c.01-3.93,3.2-7.12,7.12-7.12h203.07c3.93,0,7.12,3.19,7.12,7.12v222.4c0,3.93-3.19,7.12-7.12,7.12H8.44ZM92.94,21.94c-6.43,0-11.66,5.32-11.66,11.87s5.23,11.8,11.66,11.8,11.66-5.29,11.66-11.8-5.23-11.87-11.66-11.87Z"/>
          <path class="st6" d="M211.52-26.22c3.57,0,6.47,2.9,6.47,6.47v222.4c0,3.57-2.9,6.47-6.47,6.47H8.44c-3.57,0-6.47-2.9-6.47-6.47V-19.74c0-3.57,2.9-6.47,6.47-6.47h203.07M92.94,46.25c6.79,0,12.31-5.58,12.31-12.44s-5.52-12.51-12.31-12.51-12.31,5.61-12.31,12.51,5.52,12.44,12.31,12.44M211.52-27.51H8.44c-4.27,0-7.76,3.49-7.76,7.77v222.4c0,4.27,3.49,7.77,7.77,7.77h203.07c4.27,0,7.77-3.49,7.77-7.77V-19.74c-.01-4.28-3.5-7.77-7.77-7.77h0ZM92.94,44.96c-6.08,0-11.01-4.98-11.01-11.15s4.93-11.22,11.01-11.22,11.01,5.03,11.01,11.22-4.95,11.15-11.01,11.15h0Z"/>
        </g>
        <path class="st11" d="M158.16,115.42c-15.41-5.01-48.2-16.08-57.84-18.01s-36.84,1.39-54.02,6.16C32.4,107.43,8.59,107.75,0,107.73v37.78h330.54c-11.08-.13-47.42-12.92-71.1-16.59-23.68-3.66-85.87-8.49-101.28-13.5Z"/>
        <polygon class="st12" points="234.93 176.55 234.93 157.82 223.06 157.82 223.06 148.45 208.7 148.45 208.7 137.28 200.39 137.28 200.39 131.52 196.36 131.52 196.36 150.43 187.37 150.43 187.37 141.25 164.7 141.25 164.7 136.92 157.59 136.92 157.59 144.13 144.97 144.13 144.97 134.22 134.78 134.22 134.78 153.08 131.96 153.08 131.96 145.44 121.76 145.44 121.76 128.1 111.57 128.1 111.57 142.18 95.06 142.18 95.06 147.55 83.26 147.55 83.26 139.99 74.8 139.99 74.8 144.85 72.66 144.85 72.66 133.14 58.7 133.14 58.7 125.21 56.29 125.21 56.29 129.36 53.07 129.36 53.07 138.54 37.91 138.54 37.91 142.87 29.59 142.87 29.59 134.22 25.7 134.22 25.7 121.25 22.88 121.25 22.88 125.94 18.85 125.94 18.85 139.99 11.88 139.99 11.88 213.51 234.93 213.51 234.93 176.55"/>
        <g>
          <path class="st1" d="M219.01,176.1s-1.32-.95-1.15-2.85c.16-1.9,1.32-14.25,1.32-14.25,0,0,2.47,11.64,2.14,13.78s-1.15,3.33-1.15,3.33l.09,3.28h.54v1.66h2.71l-.15-5.23s-1.32-.95-1.15-2.85c.16-1.9,1.32-14.25,1.32-14.25,0,0,2.47,11.64,2.14,13.78s-1.15,3.33-1.15,3.33l.15,5.23h9.24v1.42l6.1.48.25-.83s9.97.59,11.45.83,4.86,2.49,4.86,2.49l7.17.95,9.56,1.07.33,19.71s4.12,1.9,5.11,4.04,5.93,9.5,5.93,10.93,1.48,4.51,1.48,4.51l7.09,3.33,9.07,57.72H29.36v-108.79l1.81-2.61h5.77l.33-2.14h2.14l.33,2.38h2.97l.16,2.61h1.32l.49-6.18,1.65-1.19h9.06v-1.66h6.59v2.38h11.37l1.81,2.61v2.14h4.12v2.38h15.33v5.23h6.26v-5.23l1.32-1.9v-7.13h5.27v3.56h1.15v-5.7h8.9v3.09h1.98l1.98-2.85h7.91v8.31h8.24l3.96-.48v-1.19h1.65v-1.78h3.05v-15.56h-.74v-3.09h-.74v-3.21h8.49l5.69-3.8,1.4-.12v.74h1.07v-.74h1.32l5.6,3.21h6.76l2.72,3.56h3.38v-1.9h.66v-1.54h1.48v1.42l6.35,5.11h6.35v-2.49h1.9v.95h5.52v5.82h-.99v12.35h11.7v3.68h4.12v1.43h.78l-.09-3.28h0Z"/>
          <path class="st9" d="M186.78,160.63h.66l.08,14.07h-.58l-.16-14.07h0ZM171.89,158.32h1.81l-.16,14.61h-1.48l-.16-14.61h0ZM168.25,158.32h1.81l-.16,14.61h-1.48l-.16-14.61h0ZM164.05,158.32h1.81l-.16,14.61h-1.48l-.16-14.61h0ZM160.42,158.32h1.81l-.16,14.61h-1.48l-.16-14.61h0ZM155.72,158.32h1.81l-.16,14.61h-1.48l-.17-14.61ZM151.83,158.32h1.81l-.16,14.61h-1.48l-.16-14.61h0ZM148.35,158.32h1.81l-.16,14.61h-1.48l-.16-14.61h0ZM178.77,158.49h.66l.08,14.07h-.58l-.16-14.07ZM180.85,159.21h.66l.08,14.07h-.58l-.16-14.07ZM182.83,159.68h.66l.08,14.07h-.58l-.17-14.07h0ZM184.8,160.16h.66l.08,14.07h-.58l-.16-14.07h0Z"/>
        </g>
        <path class="st6" d="M123.95,5.47c10.09,0,20.02.8,29.5,2.38,7.71,1.28,14.79,4.81,19.95,9.93,5.44,5.4,8.32,12.08,8.32,19.3v55.88c0,15.73-12.58,28.53-28.05,28.53h-58.62c-9.93,0-19.41,4.03-26.71,11.35-7.15,7.16-11.25,16.79-11.25,26.41v25.52h-18.88c-7.77,0-14.33-2.68-19.5-7.97-4.79-4.9-8.3-11.89-10.43-20.79-5.45-22.62-5.45-36.42,0-59.04,4.25-17.74,17.82-28.76,35.4-28.76h80.71c.71,0,1.29-.58,1.29-1.29v-7.46c0-.71-.58-1.29-1.29-1.29h-57.39v-21.07c0-16.42,4.23-24.98,28.28-29.23,8.52-1.51,18.15-2.33,27.83-2.37h.86M123.95,4.17h-.87c-10.03.05-19.61.9-28.04,2.39-24.84,4.39-29.34,13.57-29.34,30.51v22.37h58.69v7.46H43.67c-17.06,0-31.99,10.25-36.66,29.75-5.39,22.35-5.63,36.3,0,59.65,4.17,17.37,14.13,29.75,31.19,29.75h20.18v-26.81c0-19.37,16.76-36.46,36.66-36.46h58.62c16.32,0,29.34-13.44,29.34-29.82v-55.88c0-15.91-13.42-27.85-29.34-30.51-9.79-1.63-19.94-2.4-29.71-2.4h0Z"/>
      </g>
    </g>
    <g class="st5">
      <g>
        <rect class="st3" x="166.76" y="40.42" width="95.16" height="113.52" rx="6.75" ry="6.75"/>
        <path class="st14" d="M184.61,124.18c-15.41-5.25-48.2-16.82-57.84-18.84-9.65-2.02-36.84,1.45-54.02,6.45-13.9,4.04-37.71,4.37-46.3,4.35v39.54h330.54c-11.08-.14-47.42-13.53-71.1-17.36s-85.87-8.89-101.28-14.13h0Z"/>
        <polygon class="st15" points="409.26 190.45 409.26 166.11 397.39 166.11 397.39 153.93 383.03 153.93 383.03 139.41 374.72 139.41 374.72 131.92 370.69 131.92 370.69 156.51 361.7 156.51 361.7 144.57 339.03 144.57 339.03 138.95 331.91 138.95 331.91 148.31 319.3 148.31 319.3 135.43 309.11 135.43 309.11 159.95 306.29 159.95 306.29 150.02 296.09 150.02 296.09 127.47 285.89 127.47 285.89 145.77 269.39 145.77 269.39 152.76 257.58 152.76 257.58 142.93 249.13 142.93 249.13 149.25 246.99 149.25 246.99 134.03 233.03 134.03 233.03 123.73 230.62 123.73 230.62 129.11 227.4 129.11 227.4 141.05 212.24 141.05 212.24 146.67 203.92 146.67 203.92 135.43 200.03 135.43 200.03 118.57 197.21 118.57 197.21 124.66 193.18 124.66 193.18 142.93 186.21 142.93 186.21 190.46 409.26 190.46 409.26 190.45"/>
        <polygon class="st13" points="248.99 174.58 248.99 158.69 237.12 158.69 237.12 150.74 222.76 150.74 222.76 141.27 214.44 141.27 214.44 136.38 210.42 136.38 210.42 152.43 201.43 152.43 201.43 144.63 178.75 144.63 178.75 140.96 171.64 140.96 171.64 147.08 159.03 147.08 159.03 138.67 148.83 138.67 148.83 154.67 146.02 154.67 146.02 148.19 135.82 148.19 135.82 133.48 125.62 133.48 125.62 145.42 109.12 145.42 109.12 149.98 97.31 149.98 97.31 143.56 88.86 143.56 88.86 147.69 86.71 147.69 86.71 137.75 72.76 137.75 72.76 131.03 70.34 131.03 70.34 134.55 67.12 134.55 67.12 142.34 51.96 142.34 51.96 146.01 43.64 146.01 43.64 138.67 39.75 138.67 39.75 127.67 36.94 127.67 36.94 131.64 32.91 131.64 32.91 143.56 25.93 143.56 25.93 205.94 248.99 205.94 248.99 174.58"/>
        <path class="st2" d="M292.91,229.57l-7.09-3.33s-1.48-3.09-1.48-4.51-4.94-8.79-5.93-10.93-5.11-4.04-5.11-4.04l-.33-19.71-9.56-1.07-7.17-.95s-3.38-2.26-4.86-2.49c-1.48-.24-11.45-.83-11.45-.83l-.25.83-6.1-.48v-1.42h-9.24l-.15-5.23s.82-1.19,1.15-3.33c.33-2.14-2.14-13.78-2.14-13.78,0,0-1.15,12.35-1.32,14.25-.16,1.9,1.15,2.85,1.15,2.85l.15,5.23h-2.71v-1.66h-.54l-.09-3.28s.82-1.19,1.15-3.33c.33-2.14-2.14-13.78-2.14-13.78,0,0-1.15,12.35-1.32,14.25-.16,1.9,1.15,2.85,1.15,2.85l.09,3.28h-.78v-1.43h-4.12v-3.68h-11.7v-12.35h.99v-5.82h-5.52v-.95h-1.9v2.49h-6.35l-6.35-5.11v-1.42h-1.48v1.54h-.66v1.9h-3.38l-2.72-3.56h-6.76l-5.6-3.21h-1.32v.74h-1.07v-.74l-1.4.12-5.69,3.8h-8.49v3.21h.74v3.09h.74v15.56h-3.05v1.78h-1.65v1.19l-3.96.48h-8.24v-8.31h-7.91l-1.98,2.85h-1.98v-3.09h-8.9v5.7h-1.15v-3.56h-5.27v7.13l-1.32,1.9v5.23h-6.26v-5.23h-15.33v-2.38h-4.12v-2.14l-1.81-2.61h-11.37v-2.38h-6.59v1.66h-9.06l-1.65,1.19-.49,6.18h-1.32l-.16-2.61h-2.97l-.33-2.38h-2.14l-.33,2.14h-5.77l-1.81,2.61v108.79h272.94l-9.07-57.72h.01ZM157.35,230.79c-6.08,0-11.01-4.98-11.01-11.15s4.93-11.22,11.01-11.22,11.01,5.03,11.01,11.22-4.95,11.15-11.01,11.15Z"/>
        <path class="st9" d="M186.46,160.24h.66l.08,14.07h-.58l-.16-14.07ZM171.57,157.92h1.81l-.16,14.61h-1.48l-.16-14.61h0ZM167.93,157.92h1.81l-.16,14.61h-1.48l-.16-14.61h0ZM163.73,157.92h1.81l-.16,14.61h-1.48l-.16-14.61h0ZM160.1,157.92h1.81l-.16,14.61h-1.48l-.16-14.61h0ZM155.4,157.92h1.81l-.16,14.61h-1.48l-.17-14.61ZM151.5,157.92h1.81l-.16,14.61h-1.48l-.16-14.61h0ZM148.03,157.92h1.81l-.16,14.61h-1.48l-.16-14.61h0ZM178.45,158.1h.66l.08,14.07h-.58l-.16-14.07h0ZM180.53,158.81h.66l.08,14.07h-.58l-.16-14.07ZM182.51,159.29h.66l.08,14.07h-.58l-.17-14.07h0ZM184.48,159.76h.66l.08,14.07h-.58l-.16-14.07h0Z"/>
        <g>
          <polygon class="st16" points="7.2 298.16 7.2 216.91 12.4 216.91 12.94 209.67 14.73 209.67 14.73 206.05 21.55 206.05 21.55 217.17 32.31 217.17 32.31 226.73 79.32 226.73 79.32 217.68 85.96 217.68 85.96 219.36 93.04 219.36 93.04 202.19 112.42 202.19 112.42 228.8 117.44 236.04 117.44 239.01 146.24 239.01 146.24 246.89 150.72 246.89 150.72 234.23 184.99 234.23 184.99 242.76 195.4 242.76 195.4 236.3 197.55 233.19 219.8 233.19 219.8 239.91 224.82 239.91 224.82 236.81 230.38 236.81 241.86 236.81 241.86 298.16 7.2 298.16"/>
          <path class="st10" d="M82.64,219.36h1.44v8.66h-1.44v-8.66ZM17.33,206.96h1.44v11.37h-1.44v-11.37ZM17.33,220.53h1.44v11.37h-1.44v-11.37h0ZM22.27,220.53h1.44v11.37h-1.44v-11.37h0ZM27.2,220.53h1.44v11.37h-1.44v-11.37h0ZM67.93,233.19h1.44v8.66h-1.44v-8.66ZM61.29,233.19h1.44v8.66h-1.44v-8.66ZM54.2,233.19h1.44v8.66h-1.44v-8.66ZM98.07,205.66h1.61v10.08h-1.61v-10.08ZM102.64,205.66h1.61v10.08h-1.61v-10.08ZM106.95,205.66h1.61v10.08h-1.61v-10.08ZM98.16,217.81h1.44v8.66h-1.44v-8.66ZM102.91,217.81h1.44v8.66h-1.44v-8.66ZM107.22,217.81h1.44v8.66h-1.44v-8.66ZM122.74,241.08h1.44v8.66h-1.44v-8.66ZM126.23,241.08h1.44v8.66h-1.44v-8.66ZM130.18,241.08h1.44v8.66h-1.44v-8.66ZM133.95,241.08h1.44v8.66h-1.44v-8.66ZM138.52,241.08h1.44v8.66h-1.44v-8.66ZM142.47,241.08h1.44v8.66h-1.44v-8.66ZM200.96,236.68h1.44v8.66h-1.44v-8.66ZM204.46,236.68h1.44v8.66h-1.44v-8.66ZM207.96,236.68h1.44v8.66h-1.44v-8.66ZM211.45,236.68h1.44v8.66h-1.44v-8.66ZM214.95,236.68h1.44v8.66h-1.44v-8.66ZM217.64,236.68h1.44v8.66h-1.44v-8.66ZM82.64,233.19h1.44v8.66h-1.44v-8.66ZM89.46,233.19h1.44v8.66h-1.44v-8.66Z"/>
        </g>
        <path class="st8" d="M223.8,99.79c.11.1.1.56-.29.44-.39-.12-1.55-.83-1.55-.83,0,0-.86-.27-1.15-.23-.15.02-.87-.11-.87-.11,0,0-.28.14-.6,0-.26.28-.48.19-.48.19,0,0-.69.13-.97.04-.21.14-.63.01-.63.01,0,0-.47.09-.58.05-.2.09-.69-.03-.69-.03,0,0-.88.16-1.02.03-.17.05-.65-.01-.65-.01,0,0-.57.08-.79.07-.22,0-.57.04-.82.05-.24.02-.53,0-.68-.02-.15-.03-.24.02-.49.06-.26.04-1.65.36-1.31.15s1.96-.23,1.26-.33c-.72.05-1.11.08-1.48.05s-.88-.06-.59-.14c.29-.08,1.6.13,1.1,0-.5-.12-1.67-.39-1.31-.39s1.66.35,1.22.17-1.09-.6-.75-.52.72.32,1.23.47c.52.14,1.22.33.9.15-.35-.14-1.01-.58-.79-.54.21.04.75.57,1.42.53s1.33-.24,1.67-.33c.34-.09,2.01-.57,2.8-.64l2.94-.33s.2-.49.8-.56c.61-.08.98-.1,1.16-.25.18-.15,1.88-1.29,2.8-1.75.92-.45,2.87-1.2,3.29-1.46.2-.13.29-.17.37-.25s.13-.18.26-.44l.34-.67s.1.06,0,.26c-.09.2-.42.85-.42.85,0,0,.43-.15,1-1.02.56-.87.72-1.04.74-.93.02.1-.67,1.14-.67,1.14,0,0,1.47-1.47,1.46-1.15-.45.41-.72.71-.72.71,0,0,.83-.63.86-.46-.33.31-1.85,1.27-1.85,1.27,0,0,1.48-.88,1.48-.68s-1.32.78-1.7,1.1c-.38.32-1.27,1.04-2.22,1.82-.96.77-1.43,1.09-2.31,1.66-.89.56-1.89,1.32-1.89,1.32,0,0,.08.27.31.36.22.09,1.14.46,1.42.55.29.08.37.24.31.31s-.08.28-.35.29-.53-.03-.53-.03h0Z"/>
        <path class="st17" d="M212.35,68.19c14.29,0,23.22,9.14,28.09,28.77,5.97,24,5.98,41.07.03,58.93-6.22,18.72-12.54,28.87-28.12,28.87h-87.97c-.71,0-1.29.58-1.29,1.29v7.46c0,.71.58,1.29,1.29,1.29h57.33v21.07c0,16.82-15.45,24.83-28.41,28.58-10.26,2.98-19.79,4.42-29.13,4.42s-18.5-1.41-28.76-4.42c-10.61-3.12-28.42-10.99-28.42-28.58v-55.88c0-15.46,12.85-28.53,28.05-28.53h58.62c9.69,0,19.38-4.16,26.58-11.41,7.34-7.4,11.38-17.02,11.38-27.09v-24.77h20.73M212.35,66.9h-22.03v26.06c0,20.2-17.13,37.21-36.66,37.21h-58.62c-16.06,0-29.34,13.74-29.34,29.82v55.88c0,15.91,13.83,25.26,29.34,29.82,9.67,2.84,19.14,4.47,29.13,4.47,9.2,0,18.84-1.38,29.5-4.47,14.78-4.28,29.34-12.89,29.34-29.82v-22.37h-58.62v-7.46h87.97c17.06,0,23.41-11.9,29.34-29.75,6.13-18.38,5.87-36.06,0-59.65-4.22-16.98-12.27-29.75-29.34-29.75h-.01Z"/>
        <path class="st17" d="M157.35,208.68c6.04,0,10.96,4.92,10.96,10.96s-4.92,10.96-10.96,10.96-10.96-4.92-10.96-10.96,4.92-10.96,10.96-10.96M157.35,207.45c-6.73,0-12.19,5.46-12.19,12.19s5.46,12.19,12.19,12.19,12.19-5.46,12.19-12.19-5.46-12.19-12.19-12.19h0Z"/>
      </g>
    </g>
  </g>
  <g>
    <g>
      <path class="st7" d="M279.84,74.01v20.88h-12.21v-59.25h23.11c4.45,0,8.36.81,11.74,2.44,3.38,1.63,5.97,3.94,7.79,6.94s2.73,6.41,2.73,10.23c0,5.81-1.99,10.38-5.96,13.73s-9.48,5.03-16.5,5.03c0,0-10.7,0-10.7,0ZM279.84,64.12h10.91c3.23,0,5.69-.76,7.39-2.28s2.54-3.69,2.54-6.51-.85-5.25-2.56-7.04-4.07-2.71-7.08-2.77h-11.19v18.6h-.01Z"/>
      <path class="st7" d="M337.05,78.24l8.14-27.39h12.62l-17.7,50.87-.98,2.32c-2.63,5.75-6.97,8.63-13.02,8.63-1.71,0-3.45-.26-5.21-.77v-8.91l1.79.04c2.22,0,3.89-.34,4.99-1.02,1.1-.68,1.96-1.8,2.58-3.38l1.38-3.62-15.42-44.15h12.66l8.18,27.39h0Z"/>
      <path class="st7" d="M409.73,75.15c-.46,6.38-2.82,11.39-7.06,15.06-4.25,3.66-9.84,5.49-16.79,5.49-7.6,0-13.57-2.56-17.93-7.67-4.35-5.11-6.53-12.13-6.53-21.06v-3.62c0-5.7,1-10.72,3.01-15.06s4.88-7.67,8.61-9.99c3.73-2.32,8.06-3.48,13-3.48,6.84,0,12.34,1.83,16.52,5.49s6.59,8.8,7.24,15.42h-12.21c-.3-3.83-1.36-6.6-3.19-8.32-1.83-1.72-4.62-2.58-8.36-2.58-4.07,0-7.11,1.46-9.13,4.37-2.02,2.92-3.06,7.44-3.11,13.57v4.48c0,6.4.97,11.08,2.91,14.04s5,4.44,9.18,4.44c3.77,0,6.58-.86,8.44-2.58,1.86-1.72,2.92-4.39,3.19-8,0,0,12.21,0,12.21,0Z"/>
    </g>
    <g>
      <path class="st6" d="M430.46,131.03c-1.14-.19-2.38-.28-3.7-.28-4.94,0-8.29,2.1-10.05,6.31v31.25h-7.53v-44.03h7.32l.12,5.09c2.47-3.93,5.97-5.9,10.5-5.9,1.46,0,2.58.19,3.34.57v7h0Z"/>
      <path class="st6" d="M455.65,169.12c-5.97,0-10.82-1.96-14.57-5.88-3.74-3.92-5.62-9.16-5.62-15.73v-1.38c0-4.37.83-8.27,2.5-11.7s4-6.12,7-8.06,6.25-2.91,9.75-2.91c5.72,0,10.17,1.89,13.35,5.66,3.17,3.77,4.76,9.17,4.76,16.2v3.13h-29.83c.11,4.34,1.38,7.85,3.8,10.52,2.43,2.67,5.51,4.01,9.26,4.01,2.66,0,4.91-.54,6.75-1.63,1.84-1.08,3.46-2.52,4.84-4.31l4.6,3.58c-3.69,5.67-9.22,8.5-16.6,8.5h0ZM454.72,129.65c-3.04,0-5.59,1.11-7.65,3.32s-3.34,5.31-3.83,9.3h22.06v-.57c-.22-3.83-1.25-6.79-3.09-8.89-1.85-2.1-4.34-3.15-7.49-3.15h0Z"/>
      <path class="st6" d="M499.8,169.12c-5.97,0-10.82-1.96-14.57-5.88-3.74-3.92-5.62-9.16-5.62-15.73v-1.38c0-4.37.83-8.27,2.5-11.7s4-6.12,7-8.06,6.25-2.91,9.75-2.91c5.72,0,10.17,1.89,13.35,5.66,3.17,3.77,4.76,9.17,4.76,16.2v3.13h-29.83c.11,4.34,1.38,7.85,3.8,10.52,2.43,2.67,5.51,4.01,9.26,4.01,2.66,0,4.91-.54,6.75-1.63,1.84-1.08,3.46-2.52,4.84-4.31l4.6,3.58c-3.69,5.67-9.22,8.5-16.6,8.5h.01ZM498.87,129.65c-3.04,0-5.59,1.11-7.65,3.32s-3.34,5.31-3.83,9.3h22.06v-.57c-.22-3.83-1.25-6.79-3.09-8.89-1.85-2.1-4.34-3.15-7.49-3.15h0Z"/>
      <path class="st6" d="M543.34,162.97c2.69,0,5.03-.81,7.04-2.44,2.01-1.63,3.12-3.66,3.34-6.1h7.12c-.14,2.52-1,4.92-2.6,7.2s-3.74,4.1-6.41,5.45c-2.67,1.36-5.5,2.03-8.48,2.03-6,0-10.76-2-14.3-6s-5.31-9.47-5.31-16.42v-1.26c0-4.29.79-8.1,2.36-11.43s3.83-5.93,6.78-7.77c2.94-1.84,6.42-2.77,10.44-2.77,4.94,0,9.04,1.48,12.31,4.44s5.01,6.8,5.23,11.52h-7.12c-.22-2.85-1.3-5.19-3.24-7.02s-4.33-2.75-7.18-2.75c-3.82,0-6.79,1.38-8.89,4.13-2.1,2.75-3.15,6.73-3.15,11.94v1.42c0,5.07,1.04,8.98,3.13,11.72s5.07,4.11,8.95,4.11h-.02Z"/>
      <path class="st6" d="M587.58,169.12c-5.97,0-10.82-1.96-14.57-5.88-3.74-3.92-5.62-9.16-5.62-15.73v-1.38c0-4.37.83-8.27,2.5-11.7s4-6.12,7-8.06,6.25-2.91,9.75-2.91c5.72,0,10.17,1.89,13.35,5.66,3.17,3.77,4.76,9.17,4.76,16.2v3.13h-29.83c.11,4.34,1.38,7.85,3.8,10.52,2.43,2.67,5.51,4.01,9.26,4.01,2.66,0,4.91-.54,6.75-1.63,1.84-1.08,3.46-2.52,4.84-4.31l4.6,3.58c-3.69,5.67-9.22,8.5-16.6,8.5h.01ZM586.64,129.65c-3.04,0-5.59,1.11-7.65,3.32s-3.34,5.31-3.83,9.3h22.06v-.57c-.22-3.83-1.25-6.79-3.09-8.89-1.85-2.1-4.34-3.15-7.49-3.15h0Z"/>
    </g>
    <path class="st6" d="M333.27,161.16c-.13-1.59.13-4.2.09-5.51-.02-.58-.7-.54-.88-.56-3.78-.54-7.77.12-11.58.03-17.51-.45-35.04-1.6-52.59-1.55-.76-.49-.92,3.2-.33,3.74,2.51.72,5.02.27,7.53.44,15.49,1.04,31,2.2,46.49,3.06,3.75.21,7.51.15,11.27.37v-.02Z"/>
    <path class="st6" d="M333.39,145.24h-65.43c-.27,0-.52,2.9-.06,3.6.1.16,1.81.54,2.13.58,8.16,1.13,16.75.11,24.96.35,9.24.27,18.51.94,27.74,1.17,3.55.09,7.11-.1,10.66-.02-.2-1.69-.2-3.97,0-5.68h0Z"/>
    <path class="st6" d="M333.27,135.39c-8.14.19-16.27.15-24.41.36-8.91.24-17.86.9-26.77,1.17-4.73.14-9.47-.52-14.19.55-.46.7-.21,3.6.06,3.6h65.31v-5.68h0Z"/>
    <path class="st6" d="M333.39,125.16c-3.83.19-7.67.14-11.51.36-15.44.87-30.92,2.03-46.37,3.06-2.51.17-5.02-.31-7.53.44-.58.53-.42,4.22.33,3.73,17.46.07,34.91-1.1,52.34-1.55,3.82-.1,8.07.83,11.82.03.14-.03.74-.3.77-.43.13-.49-.14-4.64.13-5.64h.02Z"/>
    <path class="st7" d="M418.29,76.71c.16,5.88,2.78,12.4,5.02,12.33.36-.01.82-.19,1.35-.86-12.76-23.8,23.17-50.63,40.55-29.01,13.92,17.31-4.21,38.34-20.06,25.97-9.69-7.56-1.53-18.77,4.81-15.6,2.84,1.42,3.74,9.22,7.44,7.35,3.45-1.74-.12-8.16-2.09-10.23-6.9-7.29-20.61-.12-20.32,9.45.75,25.56,43.15,23.34,40.78-4.43-.12-1.44-.72-11.24-7.99-17.98-10.8-10.01-29.84-7.38-39.54,1.4-5.95,5.38-8.53,13.21-8.67,13.66-1.33,4.18-1.29,7.19-1.27,7.95h0Z"/>
    <path class="st6" d="M378.72,105.04c-.54.03-9.88.58-17.52,5.54-12.47,8.09-20.9,28.23-13.05,43,5.28,9.95,15.87,13.45,17.41,14.01,29.8,10.7,44.58-35.2,16.74-43.47-10.43-3.1-22.28,9.86-16.29,19.56,1.7,2.76,7.7,8.55,10.62,5.27,3.13-3.53-5.16-6.78-5.9-10.31-1.64-7.88,13.05-13.57,18.52-.74,8.96,21.01-19.4,34.78-34.35,14.46-18.67-25.38,21.24-57,43.65-36.07.89-.38,1.23-.84,1.34-1.23.73-2.44-5.67-7.22-12.07-9.11-.83-.24-4.12-1.17-9.1-.92h0Z"/>
    <path class="st7" d="M606.66,111.57c-.52-2.71-1.88-6.85-5.11-6.63l-119.43-.02c-1.7.21-3.53,4.63-4.19,6.65h128.73Z"/>
    <path class="st7" d="M496.76,50.85l.37,5.09c3.15-3.93,7.37-5.9,12.66-5.9,4.67,0,8.14,1.37,10.42,4.11s3.44,6.84,3.5,12.29v28.44h-11.76v-28.16c0-2.5-.54-4.31-1.63-5.43-1.08-1.13-2.89-1.69-5.41-1.69-3.31,0-5.79,1.41-7.45,4.23v31.05h-11.76v-44.03h11.07,0Z"/>
  </g>
  <g>
    <path class="st6" d="M561.52,48.17h-9.71v-1.83l4.58-4.63c.63-.65,1.09-1.22,1.4-1.71.3-.49.45-.95.45-1.38,0-.6-.16-1.07-.48-1.41-.32-.34-.77-.51-1.36-.51-.64,0-1.14.21-1.5.62-.37.42-.55.96-.55,1.64h-2.82c0-.82.21-1.56.62-2.24s.99-1.21,1.75-1.59,1.6-.58,2.56-.58c1.46,0,2.59.33,3.4,1,.81.66,1.21,1.6,1.21,2.81,0,.66-.18,1.34-.54,2.03s-.99,1.49-1.87,2.41l-3.22,3.22h6.09v2.15h-.01Z"/>
    <path class="st6" d="M569.82,42.8c-.73.68-1.59,1.02-2.57,1.02-1.25,0-2.25-.41-3-1.22s-1.13-1.91-1.13-3.3c0-.88.2-1.69.61-2.42.41-.73.97-1.31,1.7-1.72.73-.41,1.54-.61,2.45-.61s1.76.22,2.49.66,1.29,1.08,1.69,1.91c.4.83.61,1.78.61,2.85v.99c0,2.24-.59,4-1.76,5.28s-2.84,1.96-4.99,2.05h-.69v-2.21h.62c2.44-.11,3.77-1.2,3.97-3.27h0ZM567.94,41.78c.45,0,.84-.11,1.17-.33.33-.22.58-.49.74-.8v-1.1c0-.9-.18-1.6-.54-2.1s-.85-.75-1.46-.75c-.56,0-1.03.24-1.39.73s-.54,1.1-.54,1.84.18,1.33.53,1.8.85.71,1.49.71Z"/>
    <path class="st6" d="M580.25,43.49h-5.48v-2.15h5.48v2.15Z"/>
    <path class="st6" d="M585.25,40.27h1.5c.71,0,1.24-.17,1.58-.51.34-.34.52-.79.52-1.35s-.17-.96-.51-1.26-.81-.45-1.41-.45c-.54,0-.99.14-1.35.42s-.54.64-.54,1.09h-2.81c0-.7.2-1.33.6-1.89.4-.56.96-.99,1.67-1.31.72-.31,1.51-.47,2.37-.47,1.5,0,2.67.34,3.52,1.02.85.68,1.27,1.62,1.27,2.81,0,.61-.2,1.18-.59,1.7-.4.52-.91.91-1.56,1.19.8.27,1.39.68,1.78,1.22s.59,1.18.59,1.92c0,1.19-.46,2.15-1.38,2.87s-2.13,1.08-3.64,1.08c-1.41,0-2.57-.35-3.47-1.06-.9-.71-1.35-1.64-1.35-2.8h2.81c0,.5.2.92.6,1.24.4.32.89.48,1.47.48.67,0,1.19-.17,1.57-.5s.57-.78.57-1.33c0-1.34-.78-2.01-2.33-2.01h-1.49v-2.1Z"/>
    <path class="st6" d="M603.35,42.61c0,1.86-.41,3.28-1.22,4.26s-2,1.48-3.56,1.48-2.72-.48-3.54-1.45c-.82-.97-1.24-2.35-1.25-4.15v-2.47c0-1.88.41-3.3,1.23-4.27.82-.97,2-1.46,3.54-1.46s2.72.48,3.54,1.44,1.24,2.34,1.25,4.15v2.47h.01ZM600.54,39.9c0-1.11-.16-1.92-.48-2.43s-.82-.76-1.5-.76-1.15.24-1.46.72-.48,1.24-.5,2.27v3.27c0,1.1.16,1.91.47,2.44s.82.8,1.51.8,1.18-.26,1.49-.77c.3-.51.46-1.29.48-2.34v-3.19h0Z"/>
    <path class="st6" d="M569.24,93.5h-9.71v-1.83l4.58-4.63c.63-.65,1.09-1.22,1.4-1.71.3-.49.45-.95.45-1.38,0-.6-.16-1.07-.48-1.41-.32-.34-.77-.51-1.36-.51-.64,0-1.14.21-1.5.62-.37.42-.55.96-.55,1.64h-2.82c0-.82.21-1.56.62-2.24s.99-1.21,1.75-1.59,1.6-.58,2.56-.58c1.46,0,2.59.33,3.4,1,.81.66,1.21,1.6,1.21,2.81,0,.66-.18,1.34-.54,2.03s-.99,1.49-1.87,2.41l-3.22,3.22h6.09v2.15h-.01Z"/>
    <path class="st6" d="M580.49,87.95c0,1.86-.41,3.28-1.22,4.26s-2,1.48-3.56,1.48-2.72-.48-3.54-1.45c-.82-.97-1.24-2.35-1.25-4.15v-2.47c0-1.88.41-3.3,1.23-4.27.82-.97,2-1.46,3.54-1.46s2.72.48,3.54,1.44,1.24,2.34,1.25,4.15v2.47h.01ZM577.68,85.23c0-1.11-.16-1.92-.48-2.43s-.82-.76-1.5-.76-1.15.24-1.46.72-.48,1.24-.5,2.27v3.27c0,1.1.16,1.91.47,2.44s.82.8,1.51.8,1.18-.26,1.49-.77c.3-.51.46-1.29.48-2.34v-3.19h0Z"/>
    <path class="st6" d="M592.09,93.5h-9.71v-1.83l4.58-4.63c.63-.65,1.09-1.22,1.4-1.71.3-.49.45-.95.45-1.38,0-.6-.16-1.07-.48-1.41-.32-.34-.77-.51-1.36-.51-.64,0-1.14.21-1.5.62-.37.42-.55.96-.55,1.64h-2.82c0-.82.21-1.56.62-2.24s.99-1.21,1.75-1.59,1.6-.58,2.56-.58c1.46,0,2.59.33,3.4,1,.81.66,1.21,1.6,1.21,2.81,0,.66-.18,1.34-.54,2.03s-.99,1.49-1.87,2.41l-3.22,3.22h6.09v2.15h-.01Z"/>
    <path class="st6" d="M594.23,86.9l.82-6.83h7.93v2.22h-5.63l-.35,2.89c.67-.34,1.38-.51,2.13-.51,1.35,0,2.41.4,3.17,1.19s1.15,1.9,1.15,3.33c0,.87-.19,1.64-.58,2.33s-.94,1.22-1.66,1.6-1.57.57-2.55.57c-.86,0-1.65-.16-2.38-.49-.73-.33-1.31-.79-1.74-1.39-.42-.6-.65-1.28-.68-2.04h2.78c.06.56.26.99.62,1.31s.82.47,1.39.47c.63,0,1.12-.22,1.47-.65.34-.43.51-1.05.51-1.84s-.2-1.35-.59-1.75-.96-.61-1.68-.61c-.67,0-1.21.17-1.62.5l-.27.24-2.24-.53h0Z"/>
  </g>
  <g>
    <path class="st6" d="M558.76,66.99h-4.21l-.8,2.4h-2.55l4.34-11.66h2.23l4.36,11.66h-2.55l-.81-2.4ZM555.19,65.04h2.91l-1.46-4.36-1.45,4.36Z"/>
    <path class="st6" d="M568.16,68.51c-.57.69-1.36,1.04-2.37,1.04-.93,0-1.64-.27-2.13-.8s-.74-1.32-.75-2.35v-5.68h2.31v5.6c0,.9.41,1.35,1.23,1.35s1.32-.27,1.62-.82v-6.14h2.32v8.66h-2.18l-.06-.88Z"/>
    <path class="st6" d="M571.81,64.99c0-1.33.32-2.4.95-3.21.63-.81,1.49-1.22,2.56-1.22.95,0,1.69.33,2.22.98l.1-.82h2.1v8.38c0,.76-.17,1.42-.52,1.98-.34.56-.83.99-1.45,1.28-.62.29-1.36.44-2.19.44-.64,0-1.25-.13-1.86-.38-.6-.25-1.06-.58-1.37-.98l1.02-1.41c.58.65,1.28.97,2.1.97.61,0,1.09-.16,1.43-.49.34-.33.51-.79.51-1.4v-.46c-.53.6-1.24.9-2.11.9-1.04,0-1.88-.41-2.53-1.22-.64-.81-.96-1.89-.96-3.24v-.1ZM574.12,65.17c0,.79.16,1.4.47,1.85.31.45.75.67,1.3.67.71,0,1.21-.26,1.51-.79v-3.65c-.31-.53-.81-.79-1.5-.79-.55,0-.99.23-1.31.68-.32.45-.48,1.13-.48,2.04Z"/>
    <path class="st6" d="M586.69,68.51c-.57.69-1.36,1.04-2.37,1.04-.93,0-1.64-.27-2.13-.8s-.74-1.32-.75-2.35v-5.68h2.31v5.6c0,.9.41,1.35,1.23,1.35s1.32-.27,1.62-.82v-6.14h2.32v8.66h-2.18l-.06-.88Z"/>
    <path class="st6" d="M595.37,67c0-.28-.14-.51-.42-.67-.28-.16-.73-.31-1.35-.44-2.06-.43-3.09-1.31-3.09-2.63,0-.77.32-1.41.96-1.93.64-.52,1.47-.77,2.5-.77,1.1,0,1.98.26,2.64.78.66.52.99,1.19.99,2.02h-2.31c0-.33-.11-.6-.32-.82-.21-.22-.55-.32-1-.32-.39,0-.69.09-.91.26s-.32.4-.32.67c0,.26.12.46.36.62.24.16.65.29,1.23.41.58.12,1.06.24,1.46.39,1.22.45,1.83,1.23,1.83,2.33,0,.79-.34,1.43-1.02,1.92-.68.49-1.55.73-2.63.73-.73,0-1.37-.13-1.93-.39s-1-.61-1.33-1.06-.48-.94-.48-1.46h2.19c.02.41.17.73.46.94.28.22.66.33,1.14.33.44,0,.78-.08,1-.25s.34-.39.34-.66Z"/>
    <path class="st6" d="M601.88,58.6v2.13h1.48v1.7h-1.48v4.32c0,.32.06.55.18.69.12.14.36.21.71.21.26,0,.48-.02.68-.06v1.75c-.45.14-.92.21-1.4.21-1.62,0-2.45-.82-2.48-2.46v-4.67h-1.26v-1.7h1.26v-2.13h2.31Z"/>
  </g>
  <g>
    <path class="st6" d="M301.9,198.99h-5.42v14.95h-3v-14.95h-5.37v-2.44h13.79v2.44Z"/>
    <path class="st6" d="M309.59,214.17c-1.84,0-3.33-.58-4.47-1.74-1.14-1.16-1.71-2.7-1.71-4.63v-.36c0-1.29.25-2.44.75-3.46.5-1.01,1.2-1.8,2.1-2.37s1.9-.85,3.01-.85c1.76,0,3.12.56,4.08,1.68.96,1.12,1.44,2.71,1.44,4.76v1.17h-8.44c.09,1.07.44,1.91,1.07,2.53s1.41.93,2.36.93c1.33,0,2.41-.54,3.25-1.61l1.56,1.49c-.52.77-1.21,1.37-2.07,1.8-.86.43-1.83.64-2.91.64ZM309.25,203.11c-.8,0-1.44.28-1.93.84-.49.56-.8,1.33-.94,2.33h5.53v-.21c-.06-.97-.32-1.71-.78-2.2-.45-.5-1.08-.75-1.89-.75Z"/>
    <path class="st6" d="M322.33,211.86c.72,0,1.33-.21,1.8-.63s.73-.94.76-1.56h2.73c-.03.8-.28,1.55-.75,2.25-.47.7-1.11,1.25-1.91,1.65s-1.67.61-2.6.61c-1.81,0-3.24-.59-4.3-1.76s-1.59-2.79-1.59-4.85v-.3c0-1.97.53-3.54,1.58-4.72,1.05-1.18,2.48-1.77,4.3-1.77,1.54,0,2.79.45,3.75,1.34.97.9,1.47,2.07,1.52,3.53h-2.73c-.03-.74-.29-1.35-.76-1.83s-1.08-.72-1.81-.72c-.94,0-1.66.34-2.17,1.02-.51.68-.77,1.71-.78,3.1v.46c0,1.4.25,2.45.76,3.13.51.69,1.24,1.03,2.19,1.03Z"/>
    <path class="st6" d="M332.68,202.42c.95-1.1,2.14-1.65,3.59-1.65,2.75,0,4.15,1.57,4.19,4.72v8.44h-2.9v-8.33c0-.89-.19-1.52-.58-1.89-.39-.37-.95-.56-1.7-.56-1.16,0-2.03.52-2.6,1.55v9.23h-2.9v-18.34h2.9v6.83Z"/>
    <path class="st6" d="M346.09,201.02l.08,1.49c.96-1.15,2.21-1.73,3.76-1.73,2.69,0,4.06,1.54,4.11,4.62v8.54h-2.9v-8.37c0-.82-.18-1.43-.53-1.82-.35-.39-.93-.59-1.74-.59-1.17,0-2.04.53-2.61,1.59v9.19h-2.9v-12.92h2.73Z"/>
    <path class="st6" d="M356.46,207.36c0-1.27.25-2.41.75-3.42.5-1.01,1.21-1.79,2.11-2.34.91-.55,1.95-.82,3.13-.82,1.74,0,3.16.56,4.24,1.68,1.09,1.12,1.67,2.61,1.76,4.47v.68c.01,1.27-.23,2.41-.72,3.42s-1.19,1.78-2.1,2.33c-.91.55-1.96.82-3.16.82-1.82,0-3.28-.61-4.38-1.82s-1.64-2.83-1.64-4.85v-.14ZM359.36,207.61c0,1.33.27,2.37.82,3.12.55.75,1.31,1.13,2.29,1.13s1.74-.38,2.29-1.15c.54-.76.82-1.88.82-3.36,0-1.31-.28-2.34-.84-3.1-.56-.76-1.32-1.15-2.29-1.15s-1.7.38-2.26,1.13c-.56.75-.84,1.88-.84,3.37Z"/>
    <path class="st6" d="M382.24,207.61c0,2-.45,3.59-1.36,4.78-.91,1.19-2.12,1.79-3.65,1.79-1.42,0-2.55-.47-3.4-1.4v6.12h-2.9v-17.89h2.67l.12,1.31c.85-1.04,2.01-1.55,3.47-1.55,1.58,0,2.81.59,3.71,1.76.9,1.17,1.34,2.8,1.34,4.89v.18ZM379.35,207.36c0-1.29-.26-2.31-.77-3.07-.51-.76-1.25-1.13-2.2-1.13-1.19,0-2.04.49-2.56,1.47v5.73c.53,1,1.39,1.5,2.58,1.5.92,0,1.65-.37,2.17-1.12.52-.74.78-1.87.78-3.38Z"/>
    <path class="st6" d="M384.15,207.36c0-1.27.25-2.41.75-3.42.5-1.01,1.21-1.79,2.11-2.34.91-.55,1.95-.82,3.13-.82,1.74,0,3.16.56,4.24,1.68,1.09,1.12,1.67,2.61,1.76,4.47v.68c.01,1.27-.23,2.41-.72,3.42s-1.19,1.78-2.1,2.33c-.91.55-1.96.82-3.16.82-1.82,0-3.28-.61-4.38-1.82s-1.64-2.83-1.64-4.85v-.14ZM387.05,207.61c0,1.33.27,2.37.82,3.12.55.75,1.31,1.13,2.29,1.13s1.74-.38,2.29-1.15c.54-.76.82-1.88.82-3.36,0-1.31-.28-2.34-.84-3.1-.56-.76-1.32-1.15-2.29-1.15s-1.7.38-2.26,1.13c-.56.75-.84,1.88-.84,3.37Z"/>
    <path class="st6" d="M401.7,213.94h-2.9v-18.34h2.9v18.34Z"/>
    <path class="st6" d="M404.86,197.66c0-.45.14-.82.42-1.11.28-.29.69-.44,1.21-.44s.93.15,1.22.44c.29.29.43.66.43,1.11s-.14.8-.43,1.09c-.29.29-.69.44-1.22.44s-.93-.15-1.21-.44c-.28-.29-.42-.66-.42-1.09ZM407.94,213.94h-2.9v-12.92h2.9v12.92Z"/>
    <path class="st6" d="M418.34,210.42c0-.52-.21-.91-.64-1.18s-1.13-.51-2.12-.72c-.99-.21-1.81-.47-2.47-.79-1.45-.7-2.17-1.71-2.17-3.04,0-1.11.47-2.04,1.41-2.79.94-.75,2.13-1.12,3.58-1.12,1.54,0,2.79.38,3.74,1.15.95.76,1.43,1.75,1.43,2.97h-2.9c0-.56-.21-1.02-.62-1.39s-.96-.56-1.65-.56c-.64,0-1.16.15-1.56.44-.4.29-.6.69-.6,1.18,0,.45.19.79.56,1.04.37.25,1.13.5,2.27.75,1.14.25,2.03.55,2.68.9.65.35,1.13.76,1.44,1.25s.47,1.07.47,1.77c0,1.16-.48,2.1-1.44,2.82-.96.72-2.23,1.08-3.79,1.08-1.06,0-2-.19-2.83-.57-.83-.38-1.47-.91-1.93-1.58-.46-.67-.69-1.39-.69-2.16h2.82c.04.68.3,1.21.78,1.58s1.11.55,1.9.55,1.35-.14,1.74-.44c.4-.29.6-.67.6-1.14Z"/>
    <path class="st6" d="M443.36,208.28c-.18,1.86-.86,3.3-2.05,4.34-1.19,1.04-2.78,1.56-4.76,1.56-1.38,0-2.6-.33-3.66-.99-1.06-.66-1.87-1.59-2.44-2.8s-.87-2.62-.9-4.21v-1.62c0-1.64.29-3.08.87-4.33.58-1.25,1.42-2.21,2.5-2.89,1.09-.68,2.34-1.01,3.77-1.01,1.92,0,3.46.52,4.63,1.56s1.85,2.51,2.04,4.41h-3.01c-.14-1.25-.51-2.15-1.09-2.71-.58-.55-1.44-.83-2.57-.83-1.31,0-2.32.48-3.03,1.44-.7.96-1.06,2.37-1.08,4.22v1.54c0,1.88.34,3.31,1.01,4.3s1.66,1.48,2.96,1.48c1.19,0,2.08-.27,2.67-.8s.97-1.42,1.13-2.66h3.01Z"/>
    <path class="st6" d="M445.78,197.66c0-.45.14-.82.42-1.11.28-.29.69-.44,1.21-.44s.93.15,1.22.44c.29.29.43.66.43,1.11s-.14.8-.43,1.09c-.29.29-.69.44-1.22.44s-.93-.15-1.21-.44c-.28-.29-.42-.66-.42-1.09ZM448.86,213.94h-2.9v-12.92h2.9v12.92Z"/>
    <path class="st6" d="M455.66,197.88v3.14h2.28v2.15h-2.28v7.21c0,.49.1.85.29,1.07s.54.33,1.04.33c.33,0,.67-.04,1.01-.12v2.24c-.66.18-1.3.28-1.91.28-2.23,0-3.34-1.23-3.34-3.69v-7.32h-2.12v-2.15h2.12v-3.14h2.9Z"/>
    <path class="st6" d="M464.67,209.78l2.63-8.76h3.09l-5.13,14.88c-.79,2.17-2.12,3.26-4.01,3.26-.42,0-.89-.07-1.4-.22v-2.26l.55.04c.73,0,1.28-.13,1.65-.4.37-.27.66-.71.88-1.34l.42-1.11-4.54-12.85h3.13l2.73,8.76Z"/>
    <path class="st6" d="M477.6,207.36c0-1.27.25-2.41.75-3.42.5-1.01,1.21-1.79,2.11-2.34.91-.55,1.95-.82,3.13-.82,1.74,0,3.16.56,4.24,1.68,1.09,1.12,1.67,2.61,1.76,4.47v.68c.01,1.27-.23,2.41-.72,3.42s-1.19,1.78-2.1,2.33c-.91.55-1.96.82-3.16.82-1.82,0-3.28-.61-4.38-1.82s-1.64-2.83-1.64-4.85v-.14ZM480.5,207.61c0,1.33.27,2.37.82,3.12.55.75,1.31,1.13,2.29,1.13s1.74-.38,2.29-1.15c.54-.76.82-1.88.82-3.36,0-1.31-.28-2.34-.84-3.1-.56-.76-1.32-1.15-2.29-1.15s-1.7.38-2.26,1.13c-.56.75-.84,1.88-.84,3.37Z"/>
    <path class="st6" d="M493.09,213.94v-10.77h-1.97v-2.15h1.97v-1.18c0-1.43.4-2.54,1.19-3.32s1.91-1.17,3.34-1.17c.51,0,1.05.07,1.62.21l-.07,2.27c-.32-.06-.69-.1-1.11-.1-1.38,0-2.08.71-2.08,2.14v1.15h2.63v2.15h-2.63v10.77h-2.9Z"/>
    <path class="st6" d="M516.84,209.89h-6.73l-1.41,4.05h-3.14l6.57-17.38h2.71l6.58,17.38h-3.15l-1.42-4.05ZM510.95,207.45h5.04l-2.52-7.21-2.52,7.21Z"/>
    <path class="st6" d="M526.53,197.88v3.14h2.28v2.15h-2.28v7.21c0,.49.1.85.29,1.07s.54.33,1.04.33c.33,0,.67-.04,1.01-.12v2.24c-.66.18-1.3.28-1.91.28-2.23,0-3.34-1.23-3.34-3.69v-7.32h-2.12v-2.15h2.12v-3.14h2.9Z"/>
    <path class="st6" d="M533.89,202.42c.95-1.1,2.14-1.65,3.59-1.65,2.75,0,4.15,1.57,4.19,4.72v8.44h-2.9v-8.33c0-.89-.19-1.52-.58-1.89-.39-.37-.95-.56-1.7-.56-1.16,0-2.03.52-2.6,1.55v9.23h-2.9v-18.34h2.9v6.83Z"/>
    <path class="st6" d="M550.29,214.17c-1.84,0-3.33-.58-4.47-1.74-1.14-1.16-1.71-2.7-1.71-4.63v-.36c0-1.29.25-2.44.75-3.46.5-1.01,1.2-1.8,2.1-2.37s1.9-.85,3.01-.85c1.76,0,3.12.56,4.08,1.68.96,1.12,1.44,2.71,1.44,4.76v1.17h-8.44c.09,1.07.44,1.91,1.07,2.53s1.41.93,2.36.93c1.33,0,2.41-.54,3.25-1.61l1.56,1.49c-.52.77-1.21,1.37-2.07,1.8-.86.43-1.83.64-2.91.64ZM549.95,203.11c-.8,0-1.44.28-1.93.84-.49.56-.8,1.33-.94,2.33h5.53v-.21c-.06-.97-.32-1.71-.78-2.2-.45-.5-1.08-.75-1.89-.75Z"/>
    <path class="st6" d="M560.42,201.02l.08,1.49c.96-1.15,2.21-1.73,3.76-1.73,2.69,0,4.06,1.54,4.11,4.62v8.54h-2.9v-8.37c0-.82-.18-1.43-.53-1.82-.35-.39-.93-.59-1.74-.59-1.17,0-2.04.53-2.61,1.59v9.19h-2.9v-12.92h2.73Z"/>
    <path class="st6" d="M578.57,210.42c0-.52-.21-.91-.64-1.18s-1.13-.51-2.12-.72c-.99-.21-1.81-.47-2.47-.79-1.45-.7-2.17-1.71-2.17-3.04,0-1.11.47-2.04,1.41-2.79.94-.75,2.13-1.12,3.58-1.12,1.54,0,2.79.38,3.74,1.15.95.76,1.43,1.75,1.43,2.97h-2.9c0-.56-.21-1.02-.62-1.39s-.96-.56-1.65-.56c-.64,0-1.16.15-1.56.44-.4.29-.6.69-.6,1.18,0,.45.19.79.56,1.04.37.25,1.13.5,2.27.75,1.14.25,2.03.55,2.68.9.65.35,1.13.76,1.44,1.25s.47,1.07.47,1.77c0,1.16-.48,2.1-1.44,2.82-.96.72-2.23,1.08-3.79,1.08-1.06,0-2-.19-2.83-.57-.83-.38-1.47-.91-1.93-1.58-.46-.67-.69-1.39-.69-2.16h2.82c.04.68.3,1.21.78,1.58s1.11.55,1.9.55,1.35-.14,1.74-.44c.4-.29.6-.67.6-1.14Z"/>
  </g>
</svg>